<?xml version="1.0" encoding="UTF-8"?> <svg xmlns="http://www.w3.org/2000/svg" width="601" height="136" viewBox="0 0 601 136" fill="none"><path d="M201 92.8C201 95 200.7 97.2 200.2 99.7H158.2L156.6 97.3L180.7 50.6H159.3C159 49.3 158.8 48.1 158.7 47C158.6 45.9 158.6 44.8 158.6 43.9C158.6 43 158.6 41.8 158.7 40.7C158.8 39.5 159 38.3 159.3 37H201.8L203.1 39.5L179.2 86.1H200.2C200.7 88.6 201 90.8 201 92.8Z" fill="#2D2D2D"></path><path d="M235.2 100.6C230.5 100.6 226.6 100 223.5 98.7C220.4 97.4 217.9 95.6 216.1 93.2C214.3 90.8 213 87.9 212.3 84.4C211.6 81 211.2 77.1 211.2 72.8V37.1C212.9 36.9 214.3 36.7 215.6 36.6C216.8 36.5 218 36.5 219.1 36.5C220.2 36.5 221.2 36.5 222.4 36.6C223.6 36.7 225 36.8 226.7 37.1V71C226.7 73.9 226.8 76.4 227.1 78.4C227.3 80.4 227.8 82.1 228.4 83.4C229 84.7 229.9 85.6 231 86.1C232.1 86.7 233.6 86.9 235.4 86.9C237.2 86.9 238.7 86.6 239.8 86.1C240.9 85.5 241.8 84.6 242.4 83.4C243 82.1 243.4 80.5 243.6 78.4C243.8 76.4 243.9 73.9 243.9 71V37.2C245.6 37 247.1 36.8 248.3 36.7C249.5 36.6 250.6 36.6 251.6 36.6C252.6 36.6 253.8 36.6 255 36.7C256.2 36.8 257.7 36.9 259.4 37.2V72.9C259.4 77.2 259 81.1 258.3 84.5C257.6 87.9 256.3 90.8 254.5 93.3C252.7 95.7 250.2 97.6 247.1 98.8C243.8 100 239.9 100.6 235.2 100.6Z" fill="#2D2D2D"></path><path d="M285.9 68.4C285.9 80.7 291.1 86.9 301.4 86.9C311.7 86.9 305 86.7 306.7 86.4C308.4 86.1 310.4 85.5 312.8 84.7C314.7 88.9 316 93.2 316.6 97.6C314.9 98.2 313.3 98.8 311.9 99.2C310.4 99.6 309 99.9 307.7 100.1C306.4 100.3 305 100.4 303.7 100.5C302.4 100.6 301 100.6 299.6 100.6C294.7 100.6 290.3 99.8 286.6 98.2C282.8 96.6 279.7 94.4 277.2 91.5C274.7 88.7 272.8 85.2 271.5 81.3C270.2 77.3 269.6 73.1 269.6 68.4C269.6 63.7 270.3 59.4 271.6 55.5C272.9 51.5 274.9 48.1 277.4 45.2C279.9 42.3 283.1 40 286.8 38.4C290.5 36.8 294.7 36 299.4 36C304.1 36 304.8 36.2 307.3 36.6C309.8 37 312.6 37.8 315.7 39C315.6 41.4 315.1 43.7 314.4 45.9C313.6 48.1 312.9 50.1 312 51.8C310.8 51.4 309.8 51 308.8 50.8C307.8 50.5 306.9 50.3 306.1 50.1C305.2 49.9 304.4 49.8 303.5 49.7C302.6 49.6 301.7 49.6 300.7 49.6C296 49.6 292.3 51.2 289.8 54.4C287.2 57.4 285.9 62.2 285.9 68.4Z" fill="#2D2D2D"></path><path d="M336.7 68.4C336.7 80.7 341.9 86.9 352.2 86.9C362.5 86.9 355.8 86.7 357.5 86.4C359.2 86.1 361.2 85.5 363.6 84.7C365.5 88.9 366.8 93.2 367.4 97.6C365.7 98.2 364.1 98.8 362.7 99.2C361.2 99.6 359.8 99.9 358.5 100.1C357.2 100.3 355.8 100.4 354.5 100.5C353.2 100.6 351.8 100.6 350.5 100.6C345.6 100.6 341.2 99.8 337.5 98.2C333.7 96.6 330.6 94.4 328.1 91.5C325.6 88.7 323.7 85.2 322.4 81.3C321.1 77.3 320.5 73.1 320.5 68.4C320.5 63.7 321.2 59.4 322.5 55.5C323.8 51.5 325.8 48.1 328.3 45.2C330.8 42.3 334 40 337.7 38.4C341.4 36.8 345.6 36 350.3 36C355 36 355.7 36.2 358.2 36.6C360.7 37 363.5 37.8 366.6 39C366.5 41.4 366 43.7 365.3 45.9C364.5 48.1 363.8 50.1 362.9 51.8C361.7 51.4 360.7 51 359.7 50.8C358.7 50.5 357.8 50.3 357 50.1C356.1 49.9 355.3 49.8 354.4 49.7C353.5 49.6 352.6 49.6 351.6 49.6C346.9 49.6 343.2 51.2 340.7 54.4C337.9 57.4 336.7 62.2 336.7 68.4Z" fill="#2D2D2D"></path><path d="M415.7 100.2C413.5 100.2 411 99.9 407.9 99.4V73.9H392.5V99.4C389.4 99.9 386.9 100.2 384.8 100.2C382.7 100.2 380.1 99.9 377 99.4V37.1C378.6 36.9 380 36.7 381.3 36.6C382.6 36.5 383.7 36.4 384.7 36.4C385.7 36.4 386.9 36.5 388.2 36.6C389.5 36.7 390.9 36.9 392.4 37.1V60.2H408V37.1C409.6 36.9 411 36.7 412.2 36.6C413.4 36.5 414.6 36.4 415.6 36.4C416.6 36.4 417.8 36.5 419.1 36.6C420.4 36.7 421.8 36.9 423.3 37.1V99.4C420.3 99.9 417.8 100.2 415.7 100.2Z" fill="#2D2D2D"></path><path d="M468.9 67C468.9 69 468.6 71.3 468.1 73.8H451.3V86.2H473.2C473.7 88.6 474 90.9 474 92.8C474 94.7 473.7 97.2 473.2 99.7H435.9V37H472.7C472.9 38.3 473.1 39.5 473.2 40.6C473.3 41.7 473.4 42.8 473.4 43.7C473.4 45.6 473.2 47.9 472.7 50.6H451.3V60.2H468.1C468.7 62.7 468.9 65 468.9 67Z" fill="#2D2D2D"></path><path d="M495.2 50.6H480.6C480.1 48.1 479.8 45.8 479.8 43.7C479.8 41.6 480.1 39.5 480.6 37H525.2C525.4 38.3 525.6 39.5 525.7 40.6C525.8 41.7 525.9 42.8 525.9 43.7C525.9 45.6 525.7 47.9 525.2 50.6H510.6V99.4C507.5 99.9 505 100.2 502.9 100.2C500.8 100.2 498.2 99.9 495.1 99.4V50.6H495.2Z" fill="#2D2D2D"></path><path d="M545.9 50.6H531.3C530.8 48.1 530.5 45.8 530.5 43.7C530.5 41.6 530.8 39.5 531.3 37H575.8C576 38.3 576.2 39.5 576.3 40.6C576.4 41.7 576.5 42.8 576.5 43.7C576.5 45.6 576.3 47.9 575.8 50.6H561.2V99.4C558.1 99.9 555.6 100.2 553.5 100.2C551.4 100.2 548.8 99.9 545.7 99.4V50.6H545.9Z" fill="#2D2D2D"></path><path d="M592.9 100.2C590.7 100.2 588.2 99.9 585.1 99.4V37.1C586.7 36.9 588.1 36.7 589.4 36.6C590.7 36.5 591.8 36.4 592.8 36.4C593.8 36.4 595 36.5 596.3 36.6C597.6 36.7 599 36.9 600.5 37.1V99.4C597.5 99.9 594.9 100.2 592.9 100.2Z" fill="#2D2D2D"></path><path d="M99.4001 51.6H85.9001L84.9001 52.7L83.1001 54.6H99.4001V51.6Z" fill="#2D2D2D"></path><path d="M99.4001 45.6H91.3001L90.6001 46.3L88.6001 48.6H99.4001V45.6Z" fill="#2D2D2D"></path><path d="M99.4001 63.7H75.1001L73.5001 65.3L72.2001 66.7H99.4001V63.7Z" fill="#2D2D2D"></path><path d="M99.4001 57.6H80.5001L79.2001 59L77.7001 60.7H99.4001V57.6Z" fill="#2D2D2D"></path><path d="M33.3001 15.4H19.6001V18.4H36.2001L33.3001 15.4Z" fill="#2D2D2D"></path><path d="M27.9001 9.39999H19.5001V12.4H30.8001L27.9001 9.39999Z" fill="#2D2D2D"></path><path d="M19.6001 0.5V6.39999H25.4001L19.6001 0.5Z" fill="#2D2D2D"></path><path d="M0.600098 51.6V54.6H57.7001L60.2001 51.6H0.600098Z" fill="#2D2D2D"></path><path d="M19.6001 78.7H37.3001L39.9001 75.7L19.6001 75.8V78.7Z" fill="#2D2D2D"></path><path d="M19.6001 84.8H32.2001L33.4001 83.3L34.8001 81.7H19.6001V84.8Z" fill="#2D2D2D"></path><path d="M0.600098 45.6V48.6H28.7001L31.0001 45.6H0.600098Z" fill="#2D2D2D"></path><path d="M99.4001 42.6V36.6L94.0001 42.6H99.4001Z" fill="#2D2D2D"></path><path d="M0.600098 57.6V60.7H52.6001L55.1001 57.6H0.600098Z" fill="#2D2D2D"></path><path d="M19.6001 90.8H27.1001L29.7001 87.8H19.6001V90.8Z" fill="#2D2D2D"></path><path d="M0.600098 66.7H47.5001L48.3001 65.7L50.0001 63.7H0.600098V66.7Z" fill="#2D2D2D"></path><path d="M38.7001 21.5H19.5001V24.5H41.7001L38.7001 21.5Z" fill="#2D2D2D"></path><path d="M92.1001 127H99.4001V123.9H89.2001L92.1001 127Z" fill="#2D2D2D"></path><path d="M88.7001 90.8H118.5V87.8H91.3001L88.7001 90.8Z" fill="#2D2D2D"></path><path d="M83.6001 96.8H118.5V93.8H86.2001L83.6001 96.8Z" fill="#2D2D2D"></path><path d="M81.7001 114.9H99.4001V111.9H78.9001L81.7001 114.9Z" fill="#2D2D2D"></path><path d="M71.4001 102.8H118.5V99.8H68.5001L71.4001 102.8Z" fill="#2D2D2D"></path><path d="M69.7001 69.7L67.5001 72L66.8001 72.7H118.5V69.7H69.7001Z" fill="#2D2D2D"></path><path d="M64.2001 75.7L62.0001 78L61.3001 78.7H118.5V75.7H64.2001Z" fill="#2D2D2D"></path><path d="M55.9001 84.8H118.5V81.7H58.9001L55.9001 84.8Z" fill="#2D2D2D"></path><path d="M44.6001 70.1L44.9001 69.7H0.600098V72.7H42.4001L44.6001 70.1Z" fill="#2D2D2D"></path><path d="M33.3001 42.6L35.5001 39.5H0.600098V42.6H33.3001Z" fill="#2D2D2D"></path><path d="M99.4001 135.3V130H94.4001L99.4001 135.3Z" fill="#2D2D2D"></path><path d="M44.1001 27.5H19.6001V30.5H47.1001L44.1001 27.5Z" fill="#2D2D2D"></path><path d="M49.6001 33.5H0.600098V36.5H52.5001L49.6001 33.5Z" fill="#2D2D2D"></path><path d="M99.3001 117.9H84.1001L86.9001 120.9H99.3001V117.9Z" fill="#2D2D2D"></path><path d="M99.4001 105.9H73.6001L76.5001 108.9H99.4001V105.9Z" fill="#2D2D2D"></path><path d="M19.6001 93.8V99.7L24.6001 93.8H19.6001Z" fill="#2D2D2D"></path></svg> 