<svg xmlns="http://www.w3.org/2000/svg" width="200" height="58" viewBox="0 0 200 58">
  <defs>
    <linearGradient id="eset-grad" x1="0%" y1="0%" x2="100%" y2="100%">
      <stop offset="0%" style="stop-color:#00B8A9"/>
      <stop offset="100%" style="stop-color:#006D77"/>
    </linearGradient>
  </defs>
  <!-- ESET shield/circle mark -->
  <circle cx="24" cy="29" r="22" fill="url(#eset-grad)"/>
  <path d="M16 22h16M16 29h12M16 36h16" stroke="#fff" stroke-width="3" stroke-linecap="round"/>
  <!-- ESET wordmark -->
  <g fill="#263238">
    <path d="M62 16h22v5.5H68.5v6H82v5.5H68.5v6.5H84v5.5H62z"/>
    <path d="M90 39.5c2.2 1.5 5.2 2.5 8 2.5 3.5 0 5.5-1.5 5.5-3.8 0-2.2-1.3-3.3-5-4.5-5.5-1.8-9-4.2-9-8.7 0-5 4.2-8.8 10.8-8.8 3.2 0 5.8.7 7.5 1.5l-1.5 5.3c-1.2-.7-3.5-1.5-6.2-1.5-3.3 0-4.8 1.6-4.8 3.3 0 2.2 1.6 3.2 5.5 4.5 5.5 1.9 8.5 4.3 8.5 8.8 0 4.8-3.7 9.2-11.5 9.2-3.2 0-6.5-.9-8.5-2z"/>
    <path d="M118 16h22v5.5h-15.5v6H140v5.5h-15.5v6.5H140v5.5h-22z"/>
    <path d="M150 21.5V16h24v5.5h-8.5V45h-6.5V21.5z"/>
  </g>
</svg>